<svg width="91" height="99" viewBox="0 0 91 99" fill="none" xmlns="http://www.w3.org/2000/svg">
<path d="M37.1943 0H10.73C4.80145 0 0 4.73383 0 10.5609V88.1957C0 94.0341 4.80145 98.7566 10.73 98.7566H37.1943C67.8628 98.7566 89.041 77.1726 89.041 49.0965C89.041 21.3022 67.8628 0 37.1943 0Z" fill="url(#paint0_linear_38_69)"/>
<path d="M39.1452 23.9517C45.5909 23.9517 49.3694 22.8404 49.3694 19.9509C49.3694 22.8404 53.1479 23.9517 59.5936 23.9517C59.5936 29.4639 60.0382 33.7314 59.1491 36.1763C58.26 38.6212 53.1035 43.7333 49.3694 46.4005C45.6353 43.7333 40.4788 38.6212 39.5897 36.1763C38.7006 33.7314 39.1452 29.4639 39.1452 23.9517Z" fill="white"/>
<path d="M44.2572 32.3979L48.0357 35.9541L53.8146 29.2861" stroke="#F67969" stroke-width="2.22813" stroke-linecap="round"/>
<path fill-rule="evenodd" clip-rule="evenodd" d="M70.6684 46.0031C70.7385 45.9998 70.8088 45.9991 70.8789 46.0012C75.2938 46.1294 80.0119 48.1427 83.6219 51.3452C87.262 54.5742 90 59.2204 90 64.7477C90 71.5069 85.7921 77.8247 80.0492 81.282C74.1933 84.8073 66.4438 85.5298 59.4666 80.6441C59.4337 80.6211 59.4013 80.5973 59.3694 80.5729C59.1942 80.4382 58.9929 80.2838 58.7742 80.116L58.399 86.4558C58.3108 87.9454 57.0164 89.0824 55.5079 88.9953C53.9995 88.9082 52.8481 87.6301 52.9363 86.1404L53.5819 75.2338C53.4677 74.535 53.63 73.793 54.0941 73.182C54.7258 72.3503 55.7498 71.9806 56.7217 72.1357L67.7636 71.4983C69.2721 71.4112 70.5664 72.5482 70.6546 74.0379C70.7428 75.5275 69.5914 76.8057 68.0829 76.8928L64.063 77.1248C68.5882 79.5878 73.3381 78.9935 77.2009 76.6681C81.5864 74.0279 84.528 69.3276 84.528 64.7477C84.528 61.0753 82.7163 57.8056 79.9652 55.3651C77.2166 52.9269 73.7516 51.5214 70.822 51.4061C67.1692 51.6074 64.1521 53.2948 61.4582 55.7226C59.1049 57.8434 57.1707 60.359 55.3279 62.7559C54.9947 63.1894 54.6644 63.619 54.3351 64.0416C53.7753 64.7603 53.0876 65.7204 52.296 66.8257C50.3799 69.5008 47.8545 73.0267 45.0569 76.0404C41.076 80.329 35.7239 84.5651 29.2015 84.5651C23.9243 84.5651 19.1043 82.874 15.5796 79.6082C12.0329 76.3219 10 71.6258 10 66.0314C10 60.1903 11.6618 55.2374 14.9895 51.7236C18.3377 48.1881 23.0719 46.4279 28.5515 46.4279C36.939 46.4279 41.2599 50.6484 44.0834 53.4063C44.4623 53.7764 44.8143 54.1202 45.1455 54.424C46.2528 55.4393 46.317 57.1488 45.2887 58.2423C44.2606 59.3358 42.5294 59.3991 41.4221 58.3837C40.9963 57.9933 40.581 57.5933 40.1652 57.1929C37.3909 54.5213 34.5978 51.8316 28.5515 51.8316C24.2819 51.8316 21.1083 53.1736 18.9861 55.4145C16.8433 57.6773 15.472 61.1752 15.472 66.0314C15.472 70.2784 16.9825 73.4982 19.3238 75.6675C21.6872 77.8573 25.0999 79.1614 29.2015 79.1614C33.295 79.1614 37.2589 76.4443 41.0232 72.3891C43.588 69.6261 45.6828 66.6947 47.5184 64.1261C48.3965 62.8973 49.2154 61.7515 49.9979 60.747C50.2877 60.3749 50.5907 59.9799 50.907 59.5676C52.7369 57.1822 55.0129 54.2155 57.7696 51.7312C61.0615 48.7644 65.2698 46.2569 70.6684 46.0031Z" fill="white" stroke="url(#paint1_linear_38_69)" stroke-linecap="round" stroke-linejoin="round"/>
<defs>
<linearGradient id="paint0_linear_38_69" x1="44.5205" y1="8.72323" x2="44.5205" y2="94.0349" gradientUnits="userSpaceOnUse">
<stop stop-color="#FF9559"/>
<stop offset="1" stop-color="#E34286"/>
</linearGradient>
<linearGradient id="paint1_linear_38_69" x1="50" y1="46" x2="50" y2="89" gradientUnits="userSpaceOnUse">
<stop stop-color="#F26E6F"/>
<stop offset="1" stop-color="#E54784"/>
</linearGradient>
</defs>
</svg>
