<?xml version="1.0" encoding="UTF-8"?>
<svg width="92px" height="107px" viewBox="0 0 92 107" version="1.1" xmlns="http://www.w3.org/2000/svg" xmlns:xlink="http://www.w3.org/1999/xlink">
    <title>icon/ico-design</title>
    <defs>
        <linearGradient x1="90.0386722%" y1="0%" x2="9.96132783%" y2="103.933781%" id="linearGradient-1">
            <stop stop-color="#00CC99" offset="0%"></stop>
            <stop stop-color="#3EE2FE" offset="100%"></stop>
        </linearGradient>
        <linearGradient x1="86.3124288%" y1="-37.6826126%" x2="10.1720719%" y2="102.277191%" id="linearGradient-2">
            <stop stop-color="#00CC99" offset="0%"></stop>
            <stop stop-color="#3EE2FE" offset="100%"></stop>
        </linearGradient>
        <linearGradient x1="50%" y1="13.4198744%" x2="50%" y2="100%" id="linearGradient-3">
            <stop stop-color="#1BD6C4" offset="0%"></stop>
            <stop stop-color="#2FDDE6" offset="100%"></stop>
        </linearGradient>
    </defs>
    <g id="Service" stroke="none" stroke-width="1" fill="none" fill-rule="evenodd">
        <g id="DL-Service-Copy" transform="translate(-748.000000, -1296.000000)">
            <g id="Services-cards" transform="translate(142.500000, 1254.500000)">
                <g id="Group-12" transform="translate(583.500000, 0.000000)">
                    <g id="icon/ico-design" transform="translate(22.000000, 42.000000)">
                        <path d="M0,10.9195886 C0,4.88886633 4.92904969,0 11.0093406,0 L38.1534801,0 C69.6087391,0 91.3414634,22.0187186 91.3414634,50.7451264 C91.3414634,79.7631728 69.6087391,102.07353 38.1534801,102.07353 L11.0093406,102.07353 C4.92904969,102.07353 0,97.1846637 0,91.1539415 L0,10.9195886 Z" id="Combined-Shape" fill="url(#linearGradient-1)"></path>
                        <path d="M64.204828,25.9412321 C65.2895559,25.9412321 66.1730252,26.5247453 66.6521697,27.3432149 C67.1320957,28.1630193 67.2069633,29.2187383 66.6727461,30.162594 L66.6727461,30.162594 L62.3166204,37.8620278 C61.894266,38.6083556 61.6897971,39.4391083 61.7016546,40.2666949 C61.7135202,41.094852 61.9419972,41.9198164 62.3856212,42.6542303 L62.3856212,42.6542303 L72.935231,60.1362051 C73.7296868,61.4508211 73.811846,63.0754888 73.1549661,64.4652968 L73.1549661,64.4652968 L56.3178636,100.038359 C55.5440504,101.671966 54.3327192,103.010222 52.8618559,103.939941 C51.3918046,104.869146 49.6625249,105.390244 47.8519659,105.390244 C46.0334868,105.390244 44.2973431,104.864892 42.8234626,103.928553 C41.3491532,102.991942 40.137259,101.644127 39.3675854,99.9993988 L39.3675854,99.9993988 L22.7312066,64.4386021 C22.0898909,63.0647426 22.1682201,61.4636682 22.9425276,60.1588594 L22.9425276,60.1588594 L33.2798841,42.7260437 C33.7245457,41.9769847 33.9462338,41.1370976 33.9451903,40.2974509 C33.9441461,39.4572966 33.7201134,38.6174434 33.2738027,37.8692773 L33.2738027,37.8692773 L28.7074593,30.2188295 C28.4352204,29.762349 28.310511,29.2759181 28.3060023,28.8015389 C28.301191,28.2953155 28.4346189,27.801637 28.6802145,27.3710947 C28.9254762,26.9411376 29.2822243,26.5748235 29.7205265,26.3205326 C30.1306424,26.0825946 30.6124292,25.9412321 31.1437854,25.9412321 L31.1437854,25.9412321 Z" id="Fill-5" stroke="url(#linearGradient-2)" stroke-width="2" fill="#FFFFFF" stroke-linecap="round" stroke-linejoin="round"></path>
                        <rect id="Rectangle" fill="#20D7CC" x="31.9695122" y="39.3375736" width="22.1829268" height="1.95731707" rx="0.978658537"></rect>
                        <rect id="Rectangle" fill="url(#linearGradient-3)" x="46.9756098" y="64.7826955" width="1.95731707" height="40.4512195"></rect>
                        <path d="M53.8242967,64.3304102 C53.8242967,67.6832969 51.1010375,70.400082 47.7428782,70.400082 C44.3835026,70.400082 41.6614597,67.6832969 41.6614597,64.3304102 C41.6614597,60.9787375 44.3835026,58.2607385 47.7428782,58.2607385 C51.1010375,58.2607385 53.8242967,60.9787375 53.8242967,64.3304102 Z" id="Stroke-7" fill="#1BD6C4"></path>
                    </g>
                </g>
            </g>
        </g>
    </g>
</svg>