<?xml version="1.0" encoding="UTF-8"?><svg id="iconset-mosaic-sapphire-on-light" xmlns="http://www.w3.org/2000/svg" viewBox="0 0 48 48"><g id="mywebsite"><g><path d="M6,5H42c.552,0,1,.448,1,1v3H5v-3c0-.552,.448-1,1-1Z" style="fill:#1474c4;"/><path d="M5,9H43v23c0,.552-.448,1-1,1H6c-.552,0-1-.448-1-1V9h0Z" style="fill:#95caeb;"/><circle cx="11" cy="7" r=".5" style="fill:#fff;"/><circle cx="9" cy="7" r=".5" style="fill:#fff;"/><circle cx="7" cy="7" r=".5" style="fill:#fff;"/></g><g><path d="M23,40h14v2c0,.552-.448,1-1,1h-12c-.552,0-1-.448-1-1v-2h0Z" style="fill:#1474c4;"/><path d="M24,17h12c.552,0,1,.448,1,1v22h-14V18c0-.552,.448-1,1-1Z" style="fill:#001b41;"/><path d="M31.5,20h-3c-.276,0-.5-.224-.5-.5s.224-.5,.5-.5h3c.276,0,.5,.224,.5,.5s-.224,.5-.5,.5Z" style="fill:#95caeb;"/></g></g></svg>