<?xml version="1.0" encoding="UTF-8"?><svg id="iconset-mosaic-sapphire-on-light" xmlns="http://www.w3.org/2000/svg" viewBox="0 0 48 48"><g id="shopping-bag"><path d="M25.5,17.5c-.276,0-.5-.224-.5-.5v-3c0-2.757-2.243-5-5-5s-5,2.243-5,5v3c0,.276-.224,.5-.5,.5s-.5-.224-.5-.5v-3c0-3.309,2.691-6,6-6s6,2.691,6,6v3c0,.276-.224,.5-.5,.5Z" style="fill:#001b41;"/><path d="M8,16h24v25c0,1.104-.896,2-2,2H10c-1.104,0-2-.896-2-2V16h0Z" style="fill:#95caeb;"/><path d="M22,23h18v18c0,1.104-.896,2-2,2h-14c-1.104,0-2-.896-2-2V23h0Z" style="fill:#1474c4;"/><path d="M31.5,31c-2.206,0-4-1.794-4-4v-2c0-.276,.224-.5,.5-.5s.5,.224,.5,.5v2c0,1.654,1.346,3,3,3s3-1.346,3-3v-2c0-.276,.224-.5,.5-.5s.5,.224,.5,.5v2c0,2.206-1.794,4-4,4Z" style="fill:#fff;"/></g></svg>