<svg width="92" height="103" viewBox="0 0 92 103" fill="none" xmlns="http://www.w3.org/2000/svg">
<path d="M38.4304 0H11.0866C4.96101 0 0 4.89114 0 10.9119V91.1266C0 97.159 4.96101 102.038 11.0866 102.038H38.4304C70.118 102.038 92 79.7372 92 50.7281C92 22.0101 70.118 0 38.4304 0Z" fill="url(#paint0_linear_38_68)"/>
<mask id="path-2-outside-1_38_68" maskUnits="userSpaceOnUse" x="17" y="31" width="68" height="68" fill="black">
<rect fill="white" x="17" y="31" width="68" height="68"/>
<path fill-rule="evenodd" clip-rule="evenodd" d="M34 33.3686C34 32.6128 34.6127 32 35.3686 32H37.6313C38.3872 32 39 32.6128 39 33.3686V42.1036H48V33.3686C48 32.6128 48.6127 32 49.3686 32H51.6313C52.3872 32 53 32.6128 53 33.3686V42.1036H63V33.3686C63 32.6128 63.6127 32 64.3686 32H66.6313C67.3872 32 68 32.6128 68 33.3686V42.1036H70.9737C72.3624 42.1036 73.4881 43.2294 73.4881 44.618V48L82.6314 48C83.3872 48 84 48.6128 84 49.3686V51.6314C84 52.3872 83.3872 53 82.6314 53H73.4881V62H82.6314C83.3872 62 84 62.6128 84 63.3686V65.6314C84 66.3872 83.3872 67 82.6314 67H73.4881V77H82.6314C83.3872 77 84 77.6128 84 78.3686V80.6314C84 81.3872 83.3872 82 82.6314 82H73.4881V84.9595C73.4881 86.3481 72.3624 87.4739 70.9737 87.4739H68V96.6314C68 97.3872 67.3872 98 66.6314 98H64.3686C63.6128 98 63 97.3872 63 96.6314V87.4739H54V96.6314C54 97.3872 53.3872 98 52.6314 98H50.3686C49.6128 98 49 97.3872 49 96.6314L49 87.4739H39L39 96.6314C39 97.3872 38.3872 98 37.6314 98H35.3686C34.6128 98 34 97.3872 34 96.6314L34 87.4739H30.6323C29.2436 87.4739 28.1179 86.3481 28.1179 84.9595V82H19.3686C18.6128 82 18 81.3872 18 80.6314V78.3686C18 77.6128 18.6128 77 19.3686 77H28.1179V68H19.3686C18.6128 68 18 67.3872 18 66.6314V64.3686C18 63.6128 18.6128 63 19.3686 63H28.1179V53H19.3686C18.6128 53 18 52.3872 18 51.6314V49.3686C18 48.6128 18.6128 48 19.3686 48H28.1179V44.618C28.1179 43.2294 29.2436 42.1036 30.6323 42.1036H34V33.3686Z"/>
</mask>
<path fill-rule="evenodd" clip-rule="evenodd" d="M34 33.3686C34 32.6128 34.6127 32 35.3686 32H37.6313C38.3872 32 39 32.6128 39 33.3686V42.1036H48V33.3686C48 32.6128 48.6127 32 49.3686 32H51.6313C52.3872 32 53 32.6128 53 33.3686V42.1036H63V33.3686C63 32.6128 63.6127 32 64.3686 32H66.6313C67.3872 32 68 32.6128 68 33.3686V42.1036H70.9737C72.3624 42.1036 73.4881 43.2294 73.4881 44.618V48L82.6314 48C83.3872 48 84 48.6128 84 49.3686V51.6314C84 52.3872 83.3872 53 82.6314 53H73.4881V62H82.6314C83.3872 62 84 62.6128 84 63.3686V65.6314C84 66.3872 83.3872 67 82.6314 67H73.4881V77H82.6314C83.3872 77 84 77.6128 84 78.3686V80.6314C84 81.3872 83.3872 82 82.6314 82H73.4881V84.9595C73.4881 86.3481 72.3624 87.4739 70.9737 87.4739H68V96.6314C68 97.3872 67.3872 98 66.6314 98H64.3686C63.6128 98 63 97.3872 63 96.6314V87.4739H54V96.6314C54 97.3872 53.3872 98 52.6314 98H50.3686C49.6128 98 49 97.3872 49 96.6314L49 87.4739H39L39 96.6314C39 97.3872 38.3872 98 37.6314 98H35.3686C34.6128 98 34 97.3872 34 96.6314L34 87.4739H30.6323C29.2436 87.4739 28.1179 86.3481 28.1179 84.9595V82H19.3686C18.6128 82 18 81.3872 18 80.6314V78.3686C18 77.6128 18.6128 77 19.3686 77H28.1179V68H19.3686C18.6128 68 18 67.3872 18 66.6314V64.3686C18 63.6128 18.6128 63 19.3686 63H28.1179V53H19.3686C18.6128 53 18 52.3872 18 51.6314V49.3686C18 48.6128 18.6128 48 19.3686 48H28.1179V44.618C28.1179 43.2294 29.2436 42.1036 30.6323 42.1036H34V33.3686Z" fill="white"/>
<path d="M39 42.1036H38V43.1036H39V42.1036ZM48 42.1036V43.1036H49V42.1036H48ZM53 42.1036H52V43.1036H53V42.1036ZM63 42.1036V43.1036H64V42.1036H63ZM68 42.1036H67V43.1036H68V42.1036ZM73.4881 48H72.4881V49H73.4881V48ZM82.6314 48V49V48ZM73.4881 53V52H72.4881V53H73.4881ZM73.4881 62H72.4881V63H73.4881V62ZM73.4881 67V66H72.4881V67H73.4881ZM73.4881 77H72.4881V78H73.4881V77ZM73.4881 82V81H72.4881V82H73.4881ZM68 87.4739V86.4739H67V87.4739H68ZM63 87.4739H64V86.4739H63V87.4739ZM54 87.4739V86.4739H53V87.4739H54ZM49 96.6314H48H49ZM49 87.4739H50L50 86.4739H49V87.4739ZM39 87.4739V86.4739H38V87.4739H39ZM39 96.6314H38H39ZM34 96.6314H33H34ZM34 87.4739H35V86.4739H34V87.4739ZM28.1179 82H29.1179V81H28.1179V82ZM28.1179 77V78H29.1179V77H28.1179ZM28.1179 68H29.1179V67H28.1179V68ZM28.1179 63V64H29.1179V63H28.1179ZM28.1179 53H29.1179V52H28.1179V53ZM28.1179 48V49H29.1179V48H28.1179ZM34 42.1036V43.1036H35V42.1036H34ZM35.3686 31C34.0604 31 33 32.0605 33 33.3686H35C35 33.165 35.165 33 35.3686 33V31ZM37.6313 31H35.3686V33H37.6313V31ZM40 33.3686C40 32.0605 38.9395 31 37.6313 31V33C37.8349 33 38 33.165 38 33.3686H40ZM40 42.1036V33.3686H38V42.1036H40ZM48 41.1036H39V43.1036H48V41.1036ZM47 33.3686V42.1036H49V33.3686H47ZM49.3686 31C48.0604 31 47 32.0605 47 33.3686H49C49 33.165 49.165 33 49.3686 33V31ZM51.6313 31H49.3686V33H51.6313V31ZM54 33.3686C54 32.0605 52.9395 31 51.6313 31V33C51.8349 33 52 33.165 52 33.3686H54ZM54 42.1036V33.3686H52V42.1036H54ZM63 41.1036H53V43.1036H63V41.1036ZM62 33.3686V42.1036H64V33.3686H62ZM64.3686 31C63.0604 31 62 32.0605 62 33.3686H64C64 33.165 64.165 33 64.3686 33V31ZM66.6313 31H64.3686V33H66.6313V31ZM69 33.3686C69 32.0605 67.9395 31 66.6313 31V33C66.8349 33 67 33.165 67 33.3686H69ZM69 42.1036V33.3686H67V42.1036H69ZM70.9737 41.1036H68V43.1036H70.9737V41.1036ZM74.4881 44.618C74.4881 42.6771 72.9147 41.1036 70.9737 41.1036V43.1036C71.8101 43.1036 72.4881 43.7817 72.4881 44.618H74.4881ZM74.4881 48V44.618H72.4881V48H74.4881ZM82.6314 47L73.4881 47V49L82.6314 49V47ZM85 49.3686C85 48.0605 83.9395 47 82.6314 47V49C82.835 49 83 49.165 83 49.3686H85ZM85 51.6314V49.3686H83V51.6314H85ZM82.6314 54C83.9395 54 85 52.9395 85 51.6314H83C83 51.835 82.835 52 82.6314 52V54ZM73.4881 54H82.6314V52H73.4881V54ZM74.4881 62V53H72.4881V62H74.4881ZM82.6314 61H73.4881V63H82.6314V61ZM85 63.3686C85 62.0605 83.9395 61 82.6314 61V63C82.835 63 83 63.165 83 63.3686H85ZM85 65.6314V63.3686H83V65.6314H85ZM82.6314 68C83.9395 68 85 66.9395 85 65.6314H83C83 65.835 82.835 66 82.6314 66V68ZM73.4881 68H82.6314V66H73.4881V68ZM74.4881 77V67H72.4881V77H74.4881ZM82.6314 76H73.4881V78H82.6314V76ZM85 78.3686C85 77.0605 83.9395 76 82.6314 76V78C82.835 78 83 78.165 83 78.3686H85ZM85 80.6314V78.3686H83V80.6314H85ZM82.6314 83C83.9395 83 85 81.9395 85 80.6314H83C83 80.835 82.835 81 82.6314 81V83ZM73.4881 83H82.6314V81H73.4881V83ZM74.4881 84.9595V82H72.4881V84.9595H74.4881ZM70.9737 88.4739C72.9146 88.4739 74.4881 86.9004 74.4881 84.9595H72.4881C72.4881 85.7958 71.8101 86.4739 70.9737 86.4739V88.4739ZM68 88.4739H70.9737V86.4739H68V88.4739ZM69 96.6314V87.4739H67V96.6314H69ZM66.6314 99C67.9395 99 69 97.9395 69 96.6314H67C67 96.835 66.835 97 66.6314 97V99ZM64.3686 99H66.6314V97H64.3686V99ZM62 96.6314C62 97.9395 63.0605 99 64.3686 99V97C64.165 97 64 96.835 64 96.6314H62ZM62 87.4739V96.6314H64V87.4739H62ZM54 88.4739H63V86.4739H54V88.4739ZM55 96.6314V87.4739H53V96.6314H55ZM52.6314 99C53.9395 99 55 97.9395 55 96.6314H53C53 96.835 52.835 97 52.6314 97V99ZM50.3686 99H52.6314V97H50.3686V99ZM48 96.6314C48 97.9395 49.0605 99 50.3686 99V97C50.165 97 50 96.835 50 96.6314H48ZM48 87.4739L48 96.6314H50V87.4739H48ZM39 88.4739H49V86.4739H39V88.4739ZM38 87.4739L38 96.6314H40L40 87.4739H38ZM38 96.6314C38 96.835 37.835 97 37.6314 97V99C38.9395 99 40 97.9395 40 96.6314H38ZM37.6314 97H35.3686V99H37.6314V97ZM35.3686 97C35.165 97 35 96.835 35 96.6314H33C33 97.9395 34.0605 99 35.3686 99V97ZM35 96.6314L35 87.4739H33L33 96.6314H35ZM30.6323 88.4739H34V86.4739H30.6323V88.4739ZM27.1179 84.9595C27.1179 86.9004 28.6913 88.4739 30.6323 88.4739V86.4739C29.7959 86.4739 29.1179 85.7958 29.1179 84.9595H27.1179ZM27.1179 82V84.9595H29.1179V82H27.1179ZM19.3686 83H28.1179V81H19.3686V83ZM17 80.6314C17 81.9395 18.0605 83 19.3686 83V81C19.165 81 19 80.835 19 80.6314H17ZM17 78.3686V80.6314H19V78.3686H17ZM19.3686 76C18.0605 76 17 77.0605 17 78.3686H19C19 78.165 19.165 78 19.3686 78V76ZM28.1179 76H19.3686V78H28.1179V76ZM27.1179 68V77H29.1179V68H27.1179ZM19.3686 69H28.1179V67H19.3686V69ZM17 66.6314C17 67.9395 18.0605 69 19.3686 69V67C19.165 67 19 66.835 19 66.6314H17ZM17 64.3686V66.6314H19V64.3686H17ZM19.3686 62C18.0605 62 17 63.0605 17 64.3686H19C19 64.165 19.165 64 19.3686 64V62ZM28.1179 62H19.3686V64H28.1179V62ZM27.1179 53V63H29.1179V53H27.1179ZM19.3686 54H28.1179V52H19.3686V54ZM17 51.6314C17 52.9395 18.0605 54 19.3686 54V52C19.165 52 19 51.835 19 51.6314H17ZM17 49.3686V51.6314H19V49.3686H17ZM19.3686 47C18.0605 47 17 48.0605 17 49.3686H19C19 49.165 19.165 49 19.3686 49V47ZM28.1179 47H19.3686V49H28.1179V47ZM27.1179 44.618V48H29.1179V44.618H27.1179ZM30.6323 41.1036C28.6913 41.1036 27.1179 42.6771 27.1179 44.618H29.1179C29.1179 43.7817 29.7959 43.1036 30.6323 43.1036V41.1036ZM34 41.1036H30.6323V43.1036H34V41.1036ZM33 33.3686V42.1036H35V33.3686H33Z" fill="url(#paint1_linear_38_68)" mask="url(#path-2-outside-1_38_68)"/>
<circle cx="50.5" cy="64.5" r="5.5" fill="url(#paint2_linear_38_68)"/>
<defs>
<linearGradient id="paint0_linear_38_68" x1="46" y1="-23.2083" x2="46" y2="106.173" gradientUnits="userSpaceOnUse">
<stop stop-color="#F750A0"/>
<stop offset="1" stop-color="#7E30FE"/>
</linearGradient>
<linearGradient id="paint1_linear_38_68" x1="51" y1="32" x2="51" y2="98" gradientUnits="userSpaceOnUse">
<stop stop-color="#C343C9"/>
<stop offset="1" stop-color="#8732F8"/>
</linearGradient>
<linearGradient id="paint2_linear_38_68" x1="50.5" y1="59" x2="50.5" y2="70" gradientUnits="userSpaceOnUse">
<stop stop-color="#AE3DDA"/>
<stop offset="1" stop-color="#9D38E7"/>
</linearGradient>
</defs>
</svg>
