<?xml version="1.0" encoding="UTF-8"?>
<svg width="90px" height="100px" viewBox="0 0 90 100" version="1.1" xmlns="http://www.w3.org/2000/svg" xmlns:xlink="http://www.w3.org/1999/xlink">
    <title>icon/ico-AI</title>
    <defs>
        <linearGradient x1="10.2970804%" y1="101.762798%" x2="91.8736706%" y2="0%" id="linearGradient-1">
            <stop stop-color="#9D98D9" offset="0%"></stop>
            <stop stop-color="#A1BFF7" offset="100%"></stop>
        </linearGradient>
        <linearGradient x1="101.481496%" y1="-36.1741132%" x2="-22.1793101%" y2="103.860848%" id="linearGradient-2">
            <stop stop-color="#A1BFF7" offset="0%"></stop>
            <stop stop-color="#9D98D9" offset="100%"></stop>
        </linearGradient>
    </defs>
    <g id="Service" stroke="none" stroke-width="1" fill="none" fill-rule="evenodd">
        <g id="DL-Service-Copy" transform="translate(-1040.000000, -1296.000000)">
            <g id="Services-cards" transform="translate(142.500000, 1254.500000)">
                <g id="Group-14" transform="translate(875.500000, 0.000000)">
                    <g id="icon/ico-AI" transform="translate(22.000000, 41.500000)">
                        <path d="M0,10.5927631 C0,4.74254157 4.76143181,0 10.6349556,0 L36.8560281,0 C67.2416155,0 88.2352941,21.3596939 88.2352941,49.2263145 C88.2352941,77.3758449 67.2416155,99.0184486 36.8560281,99.0184486 L10.6349556,99.0184486 C4.76143181,99.0184486 0,94.2759071 0,88.4256856 L0,10.5927631 Z" id="Combined-Shape" fill="url(#linearGradient-1)"></path>
                        <path d="M53.6590925,24.9300773 C55.8142766,25.1646271 57.7685668,26.1580177 59.241586,27.6353699 C60.7146477,29.1127645 61.7046681,31.0725019 61.9383985,33.2322212 C62.1190144,34.9110254 61.8543815,36.5104627 61.2516827,37.9304135 C61.1164334,38.2496707 61.0774508,38.5933201 61.133178,38.920363 C61.1781332,39.1841886 61.2850428,39.4369665 61.452117,39.6557297 L61.5595669,39.782722 L74.1700497,53.2575657 C74.3998491,53.5030403 74.6900531,53.6633615 75.00181,53.7360866 C75.3318267,53.8130712 75.6851987,53.7928169 76.0210669,53.675463 C77.3700576,53.2055586 78.857284,53.0326338 80.4112598,53.2503527 C82.513651,53.5458448 84.4059944,54.5619162 85.8264981,56.0355013 C87.2462518,57.5083084 88.1931325,59.4365491 88.4129116,61.5506077 C88.7038237,64.3537435 87.7614547,66.9388905 86.0653878,68.8307162 C84.3476287,70.7467378 81.8554594,71.9515099 79.0826655,71.9515099 C77.8857596,71.9515099 76.7442311,71.7246666 75.6930887,71.3145698 C75.3763974,71.1908081 75.0386816,71.1645694 74.7200643,71.2303332 C74.4583636,71.2843492 74.2097517,71.4005577 73.9972187,71.5748046 L73.8742123,71.6862842 L61.7303888,83.8513104 C61.4934259,84.0886871 61.3394048,84.3847462 61.2746372,84.6996337 C61.2087736,85.0198498 61.2349821,85.3593425 61.3591147,85.6780936 C61.7680823,86.7300057 61.9944302,87.8729414 61.9944302,89.0713265 C61.9944302,91.7001891 60.9164994,94.0769641 59.1792792,95.7823836 C57.445317,97.4846048 55.0546336,98.5182381 52.4230835,98.4663552 C50.544713,98.4295659 48.7720063,97.7979705 47.2898619,96.7381582 C45.7873694,95.6637959 44.5848346,94.1491068 43.8773495,92.3770569 C43.3634884,91.0916548 43.1870337,89.8578991 43.2377344,88.6847689 C43.2535638,88.3221135 43.1733829,87.9686919 43.0038461,87.6671978 C42.8746278,87.4374037 42.6928039,87.2386283 42.4637817,87.0926009 L42.3207478,87.0114882 L33.9668264,82.8276763 C33.6672921,82.6773759 33.3407267,82.6283949 33.0239888,82.6683864 C32.6853144,82.7111476 32.3583063,82.8542954 32.0820045,83.0812294 C30.4647379,84.4103566 28.3969447,85.2099123 26.1414891,85.2099123 C23.5002895,85.2099123 21.1138531,84.1168696 19.408676,82.3574491 C17.7095996,80.6043234 16.6866843,78.1895944 16.763077,75.5358658 C16.8326965,73.1097678 17.863682,70.8799444 19.4866908,69.2330033 C21.110135,67.5856204 23.323017,66.5242967 25.7446059,66.42386 C28.162608,66.3239235 30.3858937,67.1434702 32.1010674,68.5597717 C32.3701757,68.7822806 32.6899643,68.9199095 33.021025,68.9605953 C33.2853235,68.9930763 33.5566079,68.9632605 33.8129736,68.8655496 L33.9648276,68.7987308 L42.3133194,64.6171969 C42.6130626,64.4669244 42.854999,64.2355719 43.0170902,63.9576174 C43.1776036,63.6823687 43.2596421,63.3614003 43.2417568,63.0289805 C43.2288563,62.2321439 43.2445346,61.9357209 43.2730918,61.6487699 C43.3066847,61.2975852 43.2420824,60.9516657 43.0899397,60.6509495 C42.9695119,60.4129189 42.7938478,60.203707 42.5701496,60.04488 L42.4302243,59.9558026 L33.5864383,54.9361927 C33.2954819,54.7710665 32.9698331,54.6998494 32.6500148,54.7202949 C32.3303819,54.7407285 32.0166779,54.8527199 31.7491073,55.0536787 C30.184903,56.227643 28.2461608,56.9253204 26.1414891,56.9253204 C23.4987308,56.9253204 21.111254,55.8312093 19.4059484,54.0702171 C17.7068703,52.3156557 16.6847372,49.8990701 16.7631007,47.2433886 C16.8342064,44.8339398 17.8528757,42.6174223 19.4587661,40.9744359 C21.0648913,39.3312093 23.2556346,38.2644222 25.6597868,38.1432131 C28.0402535,38.0234872 30.2367513,38.7948108 31.9500081,40.1509931 C32.2261327,40.3693517 32.5509387,40.5022478 32.8852147,40.5367715 C33.1498123,40.5640989 33.4200779,40.5291671 33.6745697,40.4262266 L33.8252004,40.3562554 L42.3235525,35.8840025 C42.6049011,35.7357515 42.8262322,35.5138482 42.9789762,35.2505797 C43.1444786,34.965321 43.230312,34.6325316 43.2297244,34.2867237 C43.2297244,31.4835056 44.440027,28.982413 46.3612097,27.2622806 C48.2591064,25.5629974 50.8512368,24.6243748 53.6590925,24.9300773 Z M69.2029596,65.3223086 L62.4229596,65.3223086 L62.2771554,65.3308611 C62.084942,65.3535185 61.9027577,65.4205946 61.7457188,65.5249224 C61.5604143,65.6480282 61.4102731,65.8237027 61.3242863,66.0395081 C60.6227521,67.7974101 59.4080445,69.2931518 57.865305,70.3401429 C56.3667383,71.3571558 54.5591073,71.9515099 52.6120773,71.9515099 C50.2541112,71.9515099 48.1014969,71.0779498 46.4537422,69.6390898 C46.2540391,69.4643585 46.0124648,69.3591361 45.7615022,69.3271665 C45.5104432,69.2951847 45.2500588,69.3365181 45.0136112,69.4551981 L45.0136112,69.4551981 L36.2131146,73.8626876 L36.0755962,73.9416834 C35.8993134,74.0568096 35.7524657,74.2099737 35.6486705,74.3873114 C35.532471,74.585842 35.4707439,74.8158914 35.4911001,75.0543358 C35.5128423,75.3028023 35.523842,75.5563647 35.523842,75.8129241 C35.523842,76.069522 35.5128456,76.3221243 35.4909184,76.5727307 C35.4707439,76.8090729 35.532471,77.0391223 35.6486705,77.2376529 C35.7784145,77.459325 35.9754281,77.643226 36.2131505,77.7622947 L36.2131505,77.7622947 L45.0128923,82.1702896 L45.1574966,82.2321632 C45.353431,82.3023772 45.5604571,82.3236294 45.7615022,82.2980188 C46.0126453,82.2660262 46.2544227,82.1609044 46.4535377,81.986937 C48.101309,80.547073 50.2539808,79.6743383 52.6120773,79.6743383 C53.9088049,79.6743383 55.1432313,79.9407952 56.2659923,80.4189998 C56.4927013,80.5155846 56.7372554,80.5325794 56.9687435,80.4845959 C57.2180691,80.4329151 57.452895,80.3067029 57.6401286,80.1193973 L57.6401286,80.1193973 L70.1452364,67.5924557 L70.2488093,67.4751601 C70.3762253,67.3118645 70.4606118,67.1222898 70.4983153,66.9223546 C70.5468252,66.6651155 70.5182129,66.3917512 70.4105811,66.1330864 C70.3083821,65.8858707 70.1388365,65.6834654 69.9282396,65.5424729 C69.7180698,65.4017663 69.467114,65.3223086 69.2029596,65.3223086 L69.2029596,65.3223086 Z M45.3074823,40.745232 L45.1488967,40.7526343 C44.9905226,40.76984 44.8336948,40.8165814 44.6866171,40.8939844 L44.6866171,40.8939844 L36.1710863,45.376178 L36.0370371,45.4575738 C35.8668906,45.5758107 35.7315833,45.7316036 35.6370641,45.9095742 C35.513026,46.1431263 35.4587468,46.4141052 35.4842938,46.6901847 C35.5100177,46.9657094 35.523842,47.2450349 35.523842,47.5283322 C35.523842,47.9138762 35.5001744,48.2934902 35.4547792,48.667172 C35.4217714,48.9405999 35.4727604,49.2109504 35.5920129,49.4468496 C35.7117719,49.683751 35.9002887,49.8858768 36.1413671,50.0226326 L36.1413671,50.0226326 L45.3877935,55.271334 L45.5292993,55.3412741 C45.7220595,55.4231545 45.9296109,55.4592853 46.133328,55.4465845 C46.36429,55.4321852 46.5908829,55.3539847 46.7790143,55.2035434 C48.3812348,53.9242813 50.404845,53.1575334 52.6120773,53.1575334 C54.55901,53.1575334 56.366558,53.7518298 57.8650759,54.7686393 C59.4079124,55.815521 60.6226844,57.3110817 61.3240488,59.068056 C61.4103668,59.284692 61.5606839,59.4606668 61.7462075,59.5839991 C61.9423761,59.7144079 62.1777759,59.7867347 62.4229596,59.7867347 L62.4229596,59.7867347 L69.2117832,59.7867347 L69.3387075,59.7802001 C69.5485947,59.7583178 69.7494267,59.6809753 69.9293784,59.5406284 C70.183502,59.3424338 70.391666,59.036959 70.5762446,58.5936683 C70.6773195,58.3763654 70.7024418,58.1390887 70.6636628,57.9125649 C70.6223889,57.6714672 70.5094365,57.4419736 70.3354885,57.2565929 L70.3354885,57.2565929 L57.3860264,43.4182449 L57.265295,43.3038068 C57.0967518,43.1621085 56.8993887,43.064362 56.6906298,43.0154685 C56.4318342,42.954856 56.1556493,42.9694686 55.8957408,43.0676463 C54.8728727,43.4531306 53.7686576,43.666918 52.6120773,43.666918 C50.119551,43.666918 47.8589514,42.690551 46.1803896,41.1011002 C45.9786426,40.9102289 45.7275213,40.7935231 45.4652757,40.7572701 L45.4652757,40.7572701 L45.3074823,40.745232 Z" id="Fill-1" stroke="url(#linearGradient-2)" stroke-width="2" fill="#FFFFFF"></path>
                    </g>
                </g>
            </g>
        </g>
    </g>
</svg>