<?xml version="1.0" encoding="UTF-8"?>
<svg width="116px" height="102px" viewBox="0 0 116 102" version="1.1" xmlns="http://www.w3.org/2000/svg" xmlns:xlink="http://www.w3.org/1999/xlink">
    <title>icon/ico-software-team</title>
    <defs>
        <linearGradient x1="10.3688334%" y1="108.792599%" x2="89.6311666%" y2="0%" id="linearGradient-1">
            <stop stop-color="#FFC208" offset="0%"></stop>
            <stop stop-color="#FF4F74" offset="100%"></stop>
        </linearGradient>
        <linearGradient x1="113.970454%" y1="50%" x2="-47.9628008%" y2="50%" id="linearGradient-2">
            <stop stop-color="#FF7F46" offset="0%"></stop>
            <stop stop-color="#FF695B" offset="100%"></stop>
        </linearGradient>
        <linearGradient x1="13.4480406%" y1="14.6753546%" x2="82%" y2="113.597133%" id="linearGradient-3">
            <stop stop-color="#FF8C39" offset="0%"></stop>
            <stop stop-color="#FFA820" offset="100%"></stop>
        </linearGradient>
        <linearGradient x1="92.3004197%" y1="20.1510496%" x2="2.32170669%" y2="102.089755%" id="linearGradient-4">
            <stop stop-color="#FF8344" offset="0%"></stop>
            <stop stop-color="#FFA622" offset="100%"></stop>
        </linearGradient>
        <linearGradient x1="24.8655807%" y1="-11.6892614%" x2="50%" y2="125.531704%" id="linearGradient-5">
            <stop stop-color="#FF685D" offset="0%"></stop>
            <stop stop-color="#FF6E58" offset="0%"></stop>
            <stop stop-color="#FF8441" offset="0%"></stop>
            <stop stop-color="#FF8541" offset="100%"></stop>
        </linearGradient>
    </defs>
    <g id="Service" stroke="none" stroke-width="1" fill="none" fill-rule="evenodd">
        <g id="DL-Service-Copy" transform="translate(-164.000000, -1297.000000)">
            <g id="Services-cards" transform="translate(142.500000, 1254.500000)">
                <g id="Group-10" transform="translate(0.000000, 2.000000)">
                    <g id="Group" transform="translate(22.000000, 40.500000)">
                        <g transform="translate(0.000000, -3.000000)">
                            <path d="M0,13.8175363 C0,7.84317599 4.85807124,3 10.8508058,3 L37.604069,3 C68.6063713,3 90.0261438,24.8129362 90.0261438,53.2708728 C90.0261438,82.0177225 68.6063713,104.119572 37.604069,104.119572 L10.8508058,104.119572 C4.85807124,104.119572 0,99.2763958 0,93.3020355 L0,13.8175363 Z" id="Combined-Shape-Copy-9" fill="url(#linearGradient-1)"></path>
                            <g id="Group-18-Copy" transform="translate(71.872011, 61.554328) rotate(44.000000) translate(-71.872011, -61.554328) translate(28.872011, 17.554328)" fill="#FFFFFF" stroke-linejoin="round" stroke-width="2">
                                <path d="M20.5060688,20.914109 C23.315052,20.914109 25.5921827,23.1727621 25.5921827,25.9589518 C25.5921827,27.080355 25.2232984,28.1162997 24.5993235,28.9539158 L35.5364586,28.9539777 L35.5364586,59.914109 L9.53645856,59.914109 C6.77503481,59.914109 4.53645856,57.6755328 4.53645856,54.914109 L4.53645856,33.9539777 C4.53645856,31.192554 6.77503481,28.9539777 9.53645856,28.9539777 L16.4128141,28.9539158 C15.7888393,28.1162997 15.419955,27.080355 15.419955,25.9589518 C15.419955,23.1727621 17.6970857,20.914109 20.5060688,20.914109 Z" id="Combined-Shape-Copy-12" stroke="url(#linearGradient-2)" transform="translate(20.036459, 40.414109) rotate(-270.000000) translate(-20.036459, -40.414109) "></path>
                                <path d="M16.8142952,46.5237123 C19.626044,46.5237123 21.9054168,48.8175784 21.9054168,51.6472057 C21.9054168,53.1318592 21.2779263,54.4690226 20.2752817,55.4047551 L32.7518558,55.4032342 L32.7518558,86.5237123 L5.75185577,86.5237123 C2.99043202,86.5237123 0.751855767,84.2851361 0.751855767,81.5237123 L0.751855767,55.4032342 L13.3533087,55.4047551 C12.350664,54.4690226 11.7231735,53.1318592 11.7231735,51.6472057 C11.7231735,48.8175784 14.0025463,46.5237123 16.8142952,46.5237123 Z" id="Combined-Shape" stroke="url(#linearGradient-3)"></path>
                                <path d="M42.077348,51.2096817 C44.8890154,51.2096817 47.1683221,53.5028574 47.1683221,56.331633 C47.1683221,57.6026146 46.7081881,58.7654722 45.9463736,59.6607882 L58.1287312,59.660386 L58.1300694,74.2527855 C57.5137123,72.5024159 55.8455589,71.2478436 53.8843845,71.2478436 C51.3991031,71.2478436 49.3843845,73.2625622 49.3843845,75.7478436 C49.3843845,78.2331249 51.3991031,80.2478436 53.8843845,80.2478436 C55.8453276,80.2478436 57.5133187,78.9935672 58.1298512,77.2435211 L58.1287312,86.2096817 C58.1287312,88.9711055 55.8901549,91.2096817 53.1287312,91.2096817 L31.1294877,91.2096817 C28.368064,91.2096817 26.1294877,88.9711055 26.1294877,86.2096817 L26.1294877,59.660386 L38.2083224,59.6607882 C37.4465079,58.7654722 36.9863739,57.6026146 36.9863739,56.331633 C36.9863739,53.5028574 39.2656807,51.2096817 42.077348,51.2096817 Z" id="Combined-Shape-Copy-11" stroke="url(#linearGradient-4)" transform="translate(42.129779, 71.209682) rotate(-90.000000) translate(-42.129779, -71.209682) "></path>
                                <path d="M54.1252603,7.75456699 C54.1387699,7.75941863 54.1522585,7.76432842 54.1657258,7.76929622 L73.6666374,14.9627884 C76.2416508,15.9126588 77.5696203,18.7606629 76.6419623,21.3437615 L69.5093404,41.2048172 C68.5760035,43.8037292 65.71255,45.1539445 63.1136381,44.2206076 C63.1001285,44.215756 63.0866399,44.2108462 63.0731726,44.2058784 L57.1238983,42.0103222 C57.6049938,43.1533594 57.6763269,44.4726757 57.2257919,45.7274027 C56.2780013,48.3666861 53.3799897,49.7207319 50.7528399,48.751777 C48.1257227,47.7827323 46.7643095,44.8576274 47.7120091,42.2183109 C48.1627674,40.9630981 49.0546353,39.998586 50.1486894,39.4364075 L38.9214727,35.2968044 L43.1280201,23.5844249 C43.6026669,24.9742298 44.6752159,26.1472672 46.1541133,26.6927661 C48.7449427,27.6483065 51.6017494,26.3160973 52.5350305,23.7171657 C53.468222,21.1182015 52.1244902,18.2366835 49.5336929,17.2810547 C48.0544694,16.7354928 46.4885427,16.9356898 45.2434157,17.6916157 L47.729558,10.7703574 C48.6628949,8.17144543 51.5263484,6.82123008 54.1252603,7.75456699 Z" id="Combined-Shape-Copy-13" stroke="url(#linearGradient-5)" transform="translate(57.929503, 28.261996) rotate(-35.000000) translate(-57.929503, -28.261996) "></path>
                            </g>
                        </g>
                    </g>
                </g>
            </g>
        </g>
    </g>
</svg>