<?xml version="1.0" encoding="UTF-8"?><svg id="iconset-mosaic-sapphire-on-light" xmlns="http://www.w3.org/2000/svg" viewBox="0 0 48 48"><g id="webhosting"><g><path d="M3,8H39c.552,0,1,.448,1,1v3H2v-3c0-.552,.448-1,1-1Z" style="fill:#1474c4;"/><path d="M2,12H40V29c0,.552-.448,1-1,1H3c-.552,0-1-.448-1-1V12h0Z" style="fill:#95caeb;"/><circle cx="8" cy="10" r=".5" style="fill:#fff;"/><circle cx="6" cy="10" r=".5" style="fill:#fff;"/><circle cx="4" cy="10" r=".5" style="fill:#fff;"/></g><g><path d="M16,20h28c1.104,0,2,.896,2,2v8H14v-8c0-1.104,.896-2,2-2Z" style="fill:#1474c4;"/><path d="M33.5,25.5H17.5c-.276,0-.5-.224-.5-.5s.224-.5,.5-.5h16c.276,0,.5,.224,.5,.5s-.224,.5-.5,.5Z" style="fill:#fff;"/><path d="M41,27c-1.103,0-2-.897-2-2s.897-2,2-2,2,.897,2,2-.897,2-2,2Zm0-3c-.551,0-1,.449-1,1s.449,1,1,1,1-.449,1-1-.449-1-1-1Z" style="fill:#fff;"/><rect x="14" y="30" width="32" height="10" style="fill:#001b41;"/><path d="M33.5,35.5H17.5c-.276,0-.5-.224-.5-.5s.224-.5,.5-.5h16c.276,0,.5,.224,.5,.5s-.224,.5-.5,.5Z" style="fill:#95caeb;"/><path d="M41,37c-1.103,0-2-.897-2-2s.897-2,2-2,2,.897,2,2-.897,2-2,2Zm0-3c-.551,0-1,.449-1,1s.449,1,1,1,1-.449,1-1-.449-1-1-1Z" style="fill:#95caeb;"/></g></g></svg>